# xmcd
#
# Track frame offsets: 
#        150
#        20540
#        36615
#
# Disc length: 812 seconds
#
# Revision: 0
# Processed by: cddbd v1.5.2PL0 Copyright (c) Steve Scherf et al.
# Submitted via: ExactAudioCopy v0.95b4
#
DISCID=22032a03
DTITLE=Randy Crawford - Who`s Crying Now [CD Single)
DYEAR=1992
DGENRE=Blues
TTITLE0=Who`s Crying Now
TTITLE1=Just A Touch
TTITLE2=Imagine
EXTD=
EXTT0=
EXTT1=
EXTT2=
PLAYORDER=
